<svg xmlns="http://www.w3.org/2000/svg" width="692" height="508" viewBox="0 0 692 508"><defs><linearGradient id="pearl" x2="0" y2="1"><stop stop-color="#fffefb"/><stop offset="1" stop-color="#e9e9e2"/></linearGradient><linearGradient id="navy" x2="0" y2="1"><stop stop-color="#466279"/><stop offset="1" stop-color="#21354a"/></linearGradient><linearGradient id="teal" x2="0" y2="1"><stop stop-color="#8bc5c1"/><stop offset="1" stop-color="#3f858b"/></linearGradient><linearGradient id="gold" x2="0" y2="1"><stop stop-color="#f8e9bc"/><stop offset=".5" stop-color="#d4b075"/><stop offset="1" stop-color="#ad8551"/></linearGradient><linearGradient id="rose" x2="0" y2="1"><stop stop-color="#d895a2"/><stop offset="1" stop-color="#a8566e"/></linearGradient><radialGradient id="light"><stop stop-color="#fffbe7" stop-opacity=".95"/><stop offset=".2" stop-color="#d9eafc" stop-opacity=".65"/><stop offset="1" stop-color="#7c9ace" stop-opacity="0"/></radialGradient><linearGradient id="fade" x2="0" y2="1"><stop stop-color="#152337" stop-opacity="0"/><stop offset="1" stop-color="#152337" stop-opacity=".88"/></linearGradient></defs><circle cx="346.0" cy="254.0" r="218.44" fill="none" stroke="#d0ae70" stroke-width="2"/><circle cx="346.0" cy="254.0" r="207.518" fill="none" stroke="#d0ae70" stroke-width="1"/><circle cx="346.0" cy="254.0" r="172.5676" fill="none" stroke="#d0ae70" stroke-width="1.6"/><circle cx="346.0" cy="254.0" r="157.27679999999998" fill="none" stroke="#d0ae70" stroke-width="1"/><circle cx="346.0" cy="254.0" r="67.7164" fill="none" stroke="#d0ae70" stroke-width="1.8"/><circle cx="346.0" cy="55.219599999999986" r="16.383" fill="none" stroke="#d0ae70" stroke-width="1.5"/><circle cx="518.1488761744322" cy="154.6098" r="16.383" fill="none" stroke="#d0ae70" stroke-width="1.5"/><circle cx="518.1488761744322" cy="353.3902" r="16.383" fill="none" stroke="#d0ae70" stroke-width="1.5"/><circle cx="346.0" cy="452.7804" r="16.383" fill="none" stroke="#d0ae70" stroke-width="1.5"/><circle cx="173.85112382556775" cy="353.3902" r="16.383" fill="none" stroke="#d0ae70" stroke-width="1.5"/><circle cx="173.85112382556778" cy="154.60979999999995" r="16.383" fill="none" stroke="#d0ae70" stroke-width="1.5"/><path d="M346.0 55.219599999999986 L518.1488761744322 353.3902" fill="none" stroke="#d0ae70" stroke-width="0.8" stroke-linecap="round" stroke-linejoin="round"/><path d="M518.1488761744322 154.6098 L346.0 452.7804" fill="none" stroke="#d0ae70" stroke-width="0.8" stroke-linecap="round" stroke-linejoin="round"/><path d="M518.1488761744322 353.3902 L173.85112382556775 353.3902" fill="none" stroke="#d0ae70" stroke-width="0.8" stroke-linecap="round" stroke-linejoin="round"/><path d="M346.0 452.7804 L173.85112382556778 154.60979999999995" fill="none" stroke="#d0ae70" stroke-width="0.8" stroke-linecap="round" stroke-linejoin="round"/><path d="M173.85112382556775 353.3902 L346.0 55.219599999999986" fill="none" stroke="#d0ae70" stroke-width="0.8" stroke-linecap="round" stroke-linejoin="round"/><path d="M173.85112382556778 154.60979999999995 L518.1488761744322 154.6098" fill="none" stroke="#d0ae70" stroke-width="0.8" stroke-linecap="round" stroke-linejoin="round"/><path d="M346.0 55.219599999999986 L346.0 452.7804" fill="none" stroke="#d0ae70" stroke-width="0.8" stroke-linecap="round" stroke-linejoin="round"/><path d="M518.1488761744322 154.6098 L173.85112382556775 353.3902" fill="none" stroke="#d0ae70" stroke-width="0.8" stroke-linecap="round" stroke-linejoin="round"/><path d="M518.1488761744322 353.3902 L173.85112382556778 154.60979999999995" fill="none" stroke="#d0ae70" stroke-width="0.8" stroke-linecap="round" stroke-linejoin="round"/><path d="M346.0 452.7804 L346.0 55.219599999999986" fill="none" stroke="#d0ae70" stroke-width="0.8" stroke-linecap="round" stroke-linejoin="round"/><path d="M173.85112382556775 353.3902 L518.1488761744322 154.6098" fill="none" stroke="#d0ae70" stroke-width="0.8" stroke-linecap="round" stroke-linejoin="round"/><path d="M173.85112382556778 154.60979999999995 L518.1488761744322 353.3902" fill="none" stroke="#d0ae70" stroke-width="0.8" stroke-linecap="round" stroke-linejoin="round"/><g transform="translate(302.312,210.312) scale(0.8737600000000001)"><path d="M50 8 L62 39 L92 50 L62 61 L50 92 L38 61 L8 50 L38 39 Z" fill="#d0ae70" stroke="#d0ae70" stroke-width="3" stroke-linecap="round" stroke-linejoin="round"/></g></svg>